<svg xmlns="http://www.w3.org/2000/svg" width="90" height="55" viewBox="0 0 90 55">
  <defs>
    <linearGradient id="kgold" x1="0" y1="0" x2="0" y2="1"><stop offset="0" stop-color="#FFE680"/><stop offset="1" stop-color="#B8860B"/></linearGradient>
    <linearGradient id="kskin" x1="0" y1="0" x2="0" y2="1"><stop offset="0" stop-color="#F2CDA4"/><stop offset="1" stop-color="#C8956C"/></linearGradient>
    <linearGradient id="kcape" x1="0" y1="0" x2="0" y2="1"><stop offset="0" stop-color="#C42020"/><stop offset="1" stop-color="#6E0000"/></linearGradient>
    <radialGradient id="kgem" cx="0.4" cy="0.35"><stop offset="0" stop-color="#FF7A5A"/><stop offset="1" stop-color="#B81000"/></radialGradient>
  </defs>
  <ellipse cx="45" cy="48" rx="42" ry="6" fill="#000" opacity="0.25"/>
  <g stroke="#3A1E00" stroke-width="0.7" stroke-linejoin="round">
    <rect x="5" y="22" width="80" height="21" rx="9" fill="url(#kgold)"/>
    <rect x="5" y="22" width="80" height="21" rx="9" fill="url(#kcape)" opacity="0.35" stroke="none"/>
    <ellipse cx="78" cy="32" rx="14" ry="12" fill="url(#kskin)"/>
    <g transform="rotate(90,78,20)"><rect x="68" y="15" width="22" height="7" rx="2" fill="url(#kgold)"/></g>
    <line x1="72" y1="27" x2="78" y2="33" stroke="#3A1E00" stroke-width="1.6"/>
    <line x1="78" y1="27" x2="72" y2="33" stroke="#3A1E00" stroke-width="1.6"/>
    <line x1="80" y1="28" x2="86" y2="34" stroke="#3A1E00" stroke-width="1.6"/>
    <line x1="86" y1="28" x2="80" y2="34" stroke="#3A1E00" stroke-width="1.6"/>
    <ellipse cx="79" cy="38" rx="4" ry="3" fill="url(#kgem)"/>
    <rect x="20" y="5" width="7" height="20" rx="3.5" fill="url(#kskin)" transform="rotate(-10,23,15)"/>
    <rect x="35" y="5" width="7" height="20" rx="3.5" fill="url(#kskin)" transform="rotate(10,38,15)"/>
    <rect x="10" y="7" width="7" height="18" rx="3.5" fill="url(#kcape)" transform="rotate(-15,13,16)"/>
    <rect x="47" y="5" width="7" height="18" rx="3.5" fill="url(#kcape)" transform="rotate(15,50,14)"/>
  </g>
</svg>
