<svg xmlns="http://www.w3.org/2000/svg" width="60" height="32" viewBox="0 0 60 32">
  <g stroke="#140b05" stroke-width="1.4" stroke-linejoin="round">
    <!-- coronha -->
    <path d="M4 13 L14 14 L14 22 L5 23 Q3 18 4 13 Z" fill="#883322"/>
    <path d="M5 15 L12 15.5 L12 20 L6 20.5 Z" fill="#aa4433" stroke="none"/>
    <!-- guarda -->
    <path d="M18 20 Q21 26 25 20" fill="none" stroke="#222" stroke-width="2"/>
    <!-- corpo -->
    <rect x="13" y="11" width="18" height="11" rx="2" fill="#883322"/>
    <rect x="13" y="11" width="18" height="3" rx="1.5" fill="#aa4433" stroke="none"/>
    <!-- cano superior -->
    <rect x="29" y="9.5" width="29" height="6" rx="3" fill="#ff7744"/>
    <rect x="55.5" y="9" width="3.5" height="7" rx="1.2" fill="#3a1208"/>
    <!-- cano inferior -->
    <rect x="29" y="17" width="29" height="6" rx="3" fill="#ff7744"/>
    <rect x="55.5" y="16.5" width="3.5" height="7" rx="1.2" fill="#3a1208"/>
    <!-- divisória -->
    <rect x="30" y="15" width="26" height="2" fill="#cc5533" stroke="none"/>
  </g>
</svg>
