<svg xmlns="http://www.w3.org/2000/svg" width="54" height="32" viewBox="0 0 54 32">
  <g stroke="#140b05" stroke-width="1.4" stroke-linejoin="round">
    <!-- empunhadura (madeira) -->
    <path d="M10 16 L16 16 L16 28 Q12 28 9 25 Z" fill="#995511"/>
    <path d="M11 18 L15 18 L15 25 Q13 25 11 23 Z" fill="#bb7733" stroke="none"/>
    <!-- guarda do gatilho -->
    <path d="M16 18 Q19 25 23 18" fill="none" stroke="#222" stroke-width="2"/>
    <!-- corpo -->
    <rect x="9" y="12" width="18" height="7" rx="2" fill="#995511"/>
    <!-- tambor -->
    <circle cx="20" cy="15.5" r="6" fill="#eeaa44"/>
    <circle cx="20" cy="15.5" r="6" fill="none" stroke="#664400" stroke-width="1.2"/>
    <circle cx="20" cy="12.5" r="1.3" fill="#cc9922" stroke="none"/>
    <circle cx="20" cy="18.5" r="1.3" fill="#cc9922" stroke="none"/>
    <circle cx="23" cy="15.5" r="1.3" fill="#cc9922" stroke="none"/>
    <circle cx="17" cy="15.5" r="1.3" fill="#cc9922" stroke="none"/>
    <!-- cano -->
    <rect x="26" y="12.5" width="25" height="5" rx="2" fill="#eeaa44"/>
    <rect x="27" y="13.5" width="23" height="1.6" rx="1" fill="#ffe0a0" stroke="none" opacity="0.6"/>
    <rect x="49" y="12" width="3" height="6" rx="1" fill="#332200"/>
  </g>
</svg>
